<?xml version="1.0" standalone="no"?>
<!DOCTYPE svg PUBLIC "-//W3C//DTD SVG 20010904//EN"
 "http://www.w3.org/TR/2001/REC-SVG-20010904/DTD/svg10.dtd">
<svg version="1.0" xmlns="http://www.w3.org/2000/svg"
 width="300.000000pt" height="300.000000pt" viewBox="0 0 300.000000 300.000000"
 preserveAspectRatio="xMidYMid meet">
<metadata>
Created by potrace 1.10, written by Peter Selinger 2001-2011
</metadata>
<g transform="translate(0.000000,300.000000) scale(0.100000,-0.100000)"
fill="#000000" stroke="none">
<path d="M1651 1792 c-6 -2 -11 -12 -11 -23 0 -11 -7 -22 -15 -25 -11 -5 -13
-16 -8 -50 l6 -44 -39 -1 c-22 -1 -56 -3 -76 -4 -21 -1 -38 1 -38 5 0 9 -54
21 -113 26 -20 1 -41 6 -47 9 -22 14 -103 -19 -148 -61 l-47 -43 57 -1 c31 0
58 -5 60 -11 2 -7 55 -10 158 -10 85 1 211 -4 280 -10 69 -7 143 -13 165 -13
22 -1 46 -5 53 -9 7 -5 12 -4 12 2 0 6 7 11 15 11 8 0 15 -8 15 -17 0 -14 2
-15 9 -5 4 8 23 15 41 16 24 2 34 -3 40 -18 9 -21 9 -21 10 -1 0 16 2 17 10 5
8 -12 12 -11 30 8 l21 22 -63 0 c-93 1 -206 10 -261 21 -27 5 -56 5 -65 1 -19
-10 -95 -8 -112 3 -5 3 -7 11 -4 17 4 6 -1 8 -13 4 -27 -9 -53 2 -46 20 6 16
50 19 55 4 6 -17 48 1 48 21 0 13 7 19 22 19 21 0 21 0 2 14 -27 20 -10 31 25
17 32 -14 72 -11 72 4 -1 6 -23 11 -51 13 -37 2 -50 7 -50 19 0 11 8 14 29 11
23 -3 32 1 40 18 7 17 7 25 -1 30 -13 8 -50 12 -67 6z m-243 -158 c45 -9 82
-20 82 -25 0 -19 -44 -29 -129 -29 -76 0 -89 2 -85 15 5 11 -1 15 -25 15 -17
0 -31 -4 -31 -10 0 -5 -4 -10 -10 -10 -14 0 -12 27 2 36 12 8 68 21 98 23 8 0
52 -6 98 -15z"/>
<path d="M1735 1730 c-3 -5 2 -10 12 -10 10 0 79 -14 153 -32 109 -25 140 -37
162 -58 20 -21 42 -30 85 -35 32 -5 50 -10 40 -12 -9 -3 -15 -9 -12 -14 4 -5
-7 -9 -24 -9 -32 0 -50 -15 -29 -23 20 -8 -10 -26 -33 -20 -10 3 -19 0 -19 -6
0 -6 16 -11 35 -11 33 0 40 7 36 38 -1 6 3 12 9 12 6 0 8 -5 4 -11 -4 -8 1 -9
17 -4 26 8 105 8 119 0 5 -3 11 -2 14 3 3 5 18 7 33 5 19 -3 35 2 50 16 26 24
48 28 39 6 -4 -12 -2 -13 14 -2 29 18 25 25 -22 39 -24 7 -49 19 -56 28 -8 8
-11 9 -7 3 4 -9 -2 -13 -19 -13 -14 0 -27 -4 -31 -9 -3 -6 7 -9 22 -8 22 2 29
-3 31 -20 3 -22 1 -23 -75 -22 -43 1 -68 4 -55 6 14 3 22 12 22 24 0 22 -11
24 -28 7 -9 -9 -12 -8 -12 4 0 16 20 28 46 28 9 0 14 -12 15 -32 l1 -33 7 29
c3 16 15 32 26 36 15 5 7 9 -30 14 -28 4 -152 27 -277 52 -248 48 -254 49
-263 34z"/>
<path d="M2515 1720 c-3 -5 0 -13 9 -16 9 -3 12 -12 9 -21 -5 -13 -2 -15 18
-10 13 4 30 7 37 7 7 0 11 4 8 9 -3 5 3 11 14 14 24 6 38 -12 19 -24 -11 -7
-9 -9 6 -10 11 0 14 -3 8 -6 -22 -8 -14 -21 8 -16 16 4 20 2 17 -8 -3 -8 -13
-13 -22 -13 -9 1 -16 -2 -16 -6 0 -5 21 -11 48 -15 88 -11 111 -16 116 -23 2
-4 1 -25 -3 -47 -6 -35 -8 -37 -15 -17 -6 18 -15 22 -46 22 -22 0 -54 9 -72
20 -84 51 -220 8 -236 -75 -15 -84 -13 -125 9 -165 12 -22 26 -40 31 -40 13 0
10 9 -14 41 -17 23 -23 44 -23 84 0 45 5 59 31 92 17 21 40 40 50 42 14 2 10
-5 -13 -27 -59 -55 -69 -125 -27 -187 18 -27 22 -40 14 -45 -8 -5 -9 -10 -2
-14 9 -6 27 21 24 36 -1 4 6 4 15 1 10 -4 12 -8 6 -10 -7 -3 -9 -11 -6 -19 3
-8 -1 -14 -8 -15 -8 0 -5 -4 6 -9 19 -8 18 -9 -4 -9 -16 -1 -38 13 -63 40 -45
47 -58 76 -58 125 0 21 -4 33 -10 29 -14 -9 -13 -1 7 40 18 37 11 59 -10 33
-15 -19 -97 -35 -97 -19 0 6 17 12 38 12 l37 2 -35 6 c-19 4 -43 5 -52 3 -14
-3 -15 -7 -5 -24 10 -16 20 -19 53 -15 l41 4 -1 -59 c-1 -47 3 -62 18 -73 10
-8 15 -18 11 -24 -10 -17 -28 -13 -21 5 4 11 2 15 -6 11 -7 -2 -40 -10 -73
-17 -33 -7 -65 -17 -71 -21 -6 -5 -102 -7 -215 -6 -112 1 -215 -2 -229 -6 -24
-7 -24 -7 -2 4 12 7 22 18 22 24 0 13 22 25 45 25 8 0 12 -8 10 -20 -2 -11 0
-20 6 -20 5 0 9 6 9 14 0 9 14 15 40 18 22 2 40 0 40 -4 0 -5 -5 -8 -12 -8 -6
0 -9 -2 -6 -5 7 -7 194 24 305 50 13 3 26 18 34 40 10 27 16 32 26 23 17 -14
25 -7 14 11 -7 11 -24 7 -87 -19 -166 -69 -284 -90 -322 -57 -22 19 -137 33
-146 18 -4 -6 -27 -11 -52 -11 -37 0 -44 -3 -44 -20 0 -18 -7 -20 -68 -20 -91
0 -155 23 -189 66 -29 38 -24 57 7 29 18 -16 20 -16 20 -2 0 10 -8 18 -17 19
-34 2 -38 4 -65 22 -29 19 -59 19 -221 0 -47 -5 -58 -4 -57 7 6 37 -1 49 -25
49 -14 0 -25 4 -25 9 0 6 18 9 40 9 36 0 51 -10 33 -21 -5 -2 -2 -2 4 -1 7 2
17 -6 23 -16 6 -11 15 -20 21 -20 6 0 3 10 -5 22 -20 29 -20 48 0 48 9 0 14
-6 11 -13 -3 -8 -1 -20 4 -28 6 -10 9 -7 9 14 0 15 5 27 10 27 6 0 10 -6 10
-13 0 -21 39 -40 56 -26 11 9 14 8 14 -5 0 -17 9 -20 34 -10 21 8 21 30 0 38
-9 3 -34 6 -55 6 -22 0 -38 4 -35 9 15 23 -153 41 -213 22 -26 -8 -36 -7 -47
4 -21 20 -54 29 -67 16 -14 -14 -57 -14 -57 -1 0 6 14 10 30 10 17 0 30 5 30
10 0 17 -66 11 -81 -7 -10 -11 -10 -14 -1 -9 6 4 12 2 12 -3 0 -16 -26 -13
-40 4 -14 16 -85 21 -94 6 -4 -5 -26 -19 -51 -31 -25 -12 -57 -37 -73 -55 -35
-42 -58 -49 -169 -46 -102 3 -109 -1 -160 -86 -14 -24 -31 -43 -39 -43 -20 0
-17 -27 5 -49 14 -14 29 -19 53 -16 18 3 73 7 121 11 l88 6 -3 26 -3 27 -79
-3 c-44 -2 -95 -1 -115 3 -32 6 -33 8 -16 17 11 6 28 20 37 32 14 17 20 18 27
7 6 -10 10 -10 16 -1 4 6 14 9 22 6 8 -3 11 -1 8 4 -4 6 0 17 9 25 13 14 16
13 30 -7 18 -26 13 -36 -9 -18 -13 11 -16 11 -13 0 2 -7 -19 -22 -52 -36 -66
-28 -58 -29 35 -5 46 11 70 22 70 32 0 13 32 34 48 31 4 -1 7 1 7 5 0 5 11 9
25 9 38 3 30 -11 -15 -25 -35 -10 -40 -16 -40 -41 0 -28 2 -30 39 -30 32 0 40
-4 45 -23 3 -12 19 -37 37 -55 l31 -32 -133 -1 c-74 -1 -161 -4 -194 -8 l-60
-7 40 -10 c62 -14 2543 -12 2575 3 23 11 20 12 -30 15 -30 1 -73 2 -95 1 -34
-1 -37 0 -21 10 71 45 96 89 96 165 0 48 1 51 31 57 17 4 32 12 33 18 2 7 9
39 16 72 6 33 14 70 17 83 5 20 2 22 -40 22 -54 0 -71 24 -36 51 22 16 20 17
-42 14 -35 -1 -63 -6 -61 -11 1 -5 19 -8 39 -7 21 0 31 -2 23 -7 -10 -6 -10
-8 1 -12 9 -3 8 -6 -4 -11 -12 -4 -17 -1 -17 10 0 11 -4 13 -12 5 -17 -13 -62
4 -55 21 6 16 -118 23 -128 7z m263 -79 c23 0 42 -5 42 -11 0 -6 -28 -9 -70
-7 -46 1 -70 6 -70 14 0 7 11 10 28 9 15 -2 46 -4 70 -5z m-2048 -81 c0 -17
-7 -20 -50 -20 -27 0 -50 5 -50 10 0 6 21 10 48 11 35 0 42 3 27 9 -19 8 -19
9 3 9 16 1 22 -5 22 -19z m60 -12 c19 -13 36 -30 38 -38 3 -9 -8 -4 -24 11
-16 15 -38 31 -49 37 -11 6 -15 12 -9 12 6 0 26 -10 44 -22z m120 14 c0 -4
-16 -14 -35 -21 -30 -10 -39 -10 -52 1 -14 11 -10 14 33 19 27 3 50 7 52 7 1
1 2 -2 2 -6z m1720 -12 c0 -5 -22 -10 -50 -10 -27 0 -50 5 -50 10 0 6 23 10
50 10 28 0 50 -4 50 -10z m-2020 -16 c0 -3 -11 -15 -25 -26 -60 -47 -72 -130
-30 -193 27 -39 26 -63 -1 -29 -43 54 -53 112 -30 169 20 46 86 107 86 79z
m182 -21 c68 -71 63 -179 -10 -246 -17 -15 -33 -23 -37 -18 -3 5 0 13 7 18 8
4 26 23 41 41 21 27 27 44 27 84 0 51 -30 118 -52 118 -6 0 -5 -7 3 -17 12
-15 12 -16 -3 -10 -23 8 -23 2 3 -33 47 -63 -8 -160 -91 -160 -33 0 -38 3 -34
18 5 14 4 15 -5 2 -9 -13 -14 -11 -38 13 -23 22 -28 36 -28 76 0 57 19 84 72
101 23 8 42 9 63 1 32 -11 46 -1 36 24 -9 25 18 17 46 -12z m152 18 c42 12 58
11 53 -3 -2 -7 -11 -12 -20 -12 -9 1 -14 -2 -11 -7 3 -5 1 -9 -4 -9 -21 0 -21
-45 -2 -72 16 -22 17 -28 6 -28 -8 0 -29 -14 -46 -31 -17 -17 -34 -29 -37 -25
-3 3 -11 2 -17 -3 -8 -7 -10 3 -8 33 2 23 -3 59 -12 79 -8 21 -12 45 -9 54 8
19 32 -64 33 -117 l2 -35 10 29 c6 16 19 37 29 47 27 27 23 39 -11 39 -35 0
-47 19 -30 49 8 16 15 19 27 12 10 -5 29 -5 47 0z m1738 -11 c14 -10 27 -17
30 -15 4 5 6 -6 14 -87 5 -48 2 -64 -16 -93 -12 -19 -26 -35 -31 -35 -6 0 -1
13 9 28 44 62 37 130 -21 190 -34 35 -24 44 15 12z m-36 -44 c42 -42 45 -85 8
-133 -22 -29 -55 -49 -39 -23 3 6 1 10 -4 10 -6 0 -11 -7 -11 -15 0 -10 -10
-15 -31 -15 -36 0 -84 43 -95 84 -14 58 45 126 110 126 19 0 39 -11 62 -34z
m-1595 -5 c-6 -10 -8 -20 -6 -23 3 -2 -10 -3 -28 0 -22 3 -29 1 -22 -6 10 -11
68 -18 95 -11 8 2 14 0 13 -6 -1 -6 19 -10 45 -9 26 0 52 -2 57 -6 6 -4 37
-12 70 -19 33 -7 96 -28 140 -46 44 -19 101 -39 128 -46 55 -13 79 -36 26 -25
-19 4 -72 11 -119 16 -47 4 -94 11 -105 15 -11 5 -17 5 -13 1 3 -4 24 -14 45
-22 l38 -15 -35 6 c-19 3 -62 16 -95 30 -71 29 -93 32 -75 10 11 -13 5 -15
-43 -15 -37 0 -59 5 -67 15 -7 9 -19 14 -27 11 -8 -3 -11 -1 -8 4 3 6 -3 10
-15 10 -11 0 -28 9 -37 19 -22 26 -33 18 -33 -25 0 -34 0 -34 48 -34 26 0 54
-5 62 -10 10 -6 -8 -7 -52 -3 -43 4 -68 2 -68 -4 0 -15 631 -28 640 -13 5 8
13 8 31 0 17 -7 137 -8 397 -3 326 7 375 6 392 -7 19 -14 -61 -16 -795 -15
-448 0 -815 2 -815 5 0 7 38 31 82 51 20 10 45 30 55 46 26 42 39 53 60 53 23
0 143 -39 160 -52 13 -10 28 6 19 21 -3 5 -54 21 -114 35 -98 25 -108 29 -110
51 -1 21 3 24 41 28 23 2 43 4 45 5 1 1 -2 -6 -7 -17z m286 -32 c33 -21 51
-49 29 -49 -37 0 -133 25 -149 39 -17 14 -17 16 -2 27 21 15 82 7 122 -17z
m913 -33 c0 -14 -35 -36 -58 -36 -25 0 -26 1 -7 14 11 7 29 16 40 19 11 2 21
5 23 6 1 0 2 -1 2 -3z m-494 -91 c-21 -16 -56 -20 -56 -7 0 14 7 18 42 20 31
2 32 1 14 -13z m-76 -5 c0 -5 -25 -10 -55 -10 -30 0 -55 5 -55 10 0 6 25 10
55 10 30 0 55 -4 55 -10z m965 -47 c-22 -15 -105 -18 -105 -3 0 5 13 8 30 6
16 -2 39 2 52 9 29 15 47 6 23 -12z m-1962 -7 c22 0 36 -4 34 -11 -4 -11 -76
-16 -92 -6 -5 3 -14 6 -19 6 -5 0 -11 6 -14 14 -4 11 2 12 24 5 16 -4 46 -8
67 -8z"/>
<path d="M646 1445 c-37 -37 -26 -90 20 -101 34 -9 76 28 56 48 -11 11 -12 9
-6 -6 5 -14 4 -17 -5 -12 -7 5 -10 2 -9 -5 2 -7 -4 -14 -13 -16 -19 -5 -49 22
-49 42 0 20 30 47 49 42 9 -2 15 -8 14 -13 -1 -6 5 -11 13 -11 21 0 17 14 -8
31 -28 20 -43 20 -62 1z"/>
<path d="M895 1511 c-32 -7 -27 -14 18 -25 23 -5 27 -3 27 14 0 11 -3 19 -7
19 -5 -1 -21 -4 -38 -8z"/>
<path d="M2542 1448 c-17 -17 -15 -33 2 -18 25 20 61 8 64 -22 4 -30 -24 -52
-55 -43 -11 4 -9 1 4 -6 49 -26 97 45 57 85 -18 19 -55 21 -72 4z"/>
<path d="M2450 1654 c0 -28 16 -64 29 -64 5 0 14 13 19 30 8 21 15 28 27 24 9
-4 13 -13 10 -24 -5 -14 1 -19 30 -22 l35 -4 -6 35 c-8 45 -8 45 -34 29 -18
-11 -22 -11 -31 5 -7 11 -22 17 -44 17 -31 0 -35 -3 -35 -26z"/>
<path d="M1640 1635 c0 -9 9 -15 25 -15 16 0 25 6 25 15 0 9 -9 15 -25 15 -16
0 -25 -6 -25 -15z"/>
<path d="M1326 1526 c3 -8 11 -13 19 -10 7 3 15 -1 18 -9 3 -10 14 -13 31 -10
23 5 26 2 26 -21 0 -16 4 -25 10 -21 6 4 9 19 7 33 -3 22 -9 27 -33 28 -17 0
-28 6 -26 12 1 7 -10 12 -28 12 -21 0 -28 -4 -24 -14z"/>
<path d="M2225 1520 c-3 -5 -18 -11 -33 -11 -21 -1 -22 -2 -7 -6 52 -13 33
-23 -43 -23 -74 0 -93 -6 -76 -22 3 -4 18 -2 34 2 21 6 30 4 34 -6 3 -9 -1
-14 -12 -15 -33 -1 -67 -10 -76 -19 -18 -18 -22 -11 -18 30 4 39 3 40 -26 40
-17 0 -39 3 -49 7 -16 6 -16 5 -5 -9 7 -9 12 -25 10 -35 -3 -18 0 -18 45 -6 9
3 17 0 17 -6 0 -7 -4 -10 -9 -7 -5 3 -12 -9 -16 -27 -7 -26 -9 -28 -12 -11 -3
16 -9 20 -24 17 -14 -4 -17 -8 -9 -13 7 -5 0 -9 -18 -12 -23 -3 -32 0 -35 14
-3 10 -1 18 4 18 5 0 9 12 9 26 0 26 0 26 -26 9 -14 -9 -29 -14 -32 -10 -9 9
39 44 63 46 17 1 16 2 -5 9 -42 13 -53 12 -46 -7 6 -17 5 -17 -7 -1 -16 20
-67 35 -67 19 0 -6 9 -11 20 -11 15 0 22 -8 26 -29 3 -15 23 -47 44 -70 34
-36 41 -40 71 -35 19 3 43 9 54 13 11 5 45 16 75 26 30 10 68 29 83 42 16 12
37 23 48 23 10 0 19 6 20 13 0 6 2 20 4 30 4 19 -1 22 -10 7z"/>
<path d="M1452 1495 c0 -16 -2 -39 -5 -50 -2 -11 -2 -14 0 -7 4 11 8 11 21 1
14 -11 15 -11 5 1 -18 19 -16 33 2 26 8 -3 15 -1 15 4 0 23 19 8 23 -17 l4
-28 2 28 c1 25 4 27 24 21 27 -8 39 -24 31 -44 -4 -11 -2 -12 6 -4 9 9 9 17 1
33 -14 24 -50 36 -91 28 -24 -5 -29 -3 -33 16 -3 16 -5 14 -5 -8z"/>
<path d="M1470 1510 c0 -6 10 -10 23 -9 12 1 31 1 42 1 26 -2 88 -59 80 -72
-3 -5 -1 -10 4 -10 6 0 11 -5 11 -11 0 -5 -4 -8 -8 -5 -4 2 -13 -4 -20 -15
-12 -18 -3 -27 12 -12 4 5 35 6 68 4 39 -2 58 1 54 7 -3 6 -2 12 4 14 6 2 6 8
0 18 -8 13 -10 13 -10 -1 0 -13 -10 -17 -40 -17 -43 -1 -58 11 -40 32 12 16
90 10 101 -7 4 -5 9 -5 13 2 13 20 46 12 58 -14 6 -14 17 -25 25 -25 19 0 16
10 -17 54 -31 41 -67 56 -82 34 -6 -10 -8 -10 -8 0 0 16 -62 16 -78 0 -9 -9
-15 -9 -24 0 -17 17 -26 15 -32 -5 -2 -10 -4 -5 -3 12 l2 29 -67 3 c-42 2 -68
-1 -68 -7z"/>
<path d="M1923 1463 c0 -10 5 -21 11 -25 8 -5 7 -8 -1 -8 -7 0 -13 -5 -13 -12
0 -9 3 -9 12 0 16 16 19 62 4 62 -7 0 -13 -8 -13 -17z"/>
<path d="M1578 1398 c-10 -10 -18 -22 -18 -27 0 -6 -15 -12 -32 -14 -32 -4
-32 -4 5 -5 22 -1 37 3 37 10 0 6 7 20 17 30 21 24 13 30 -9 6z"/>
<path d="M2250 1348 c-25 -6 -90 -19 -145 -29 l-100 -19 95 6 c52 4 97 10 98
15 2 5 13 9 25 10 25 1 109 27 87 27 -8 0 -35 -5 -60 -10z"/>
<path d="M746 234 c-9 -25 -7 -41 4 -24 6 10 10 11 10 3 0 -7 4 -13 9 -13 10
0 3 38 -9 45 -4 3 -11 -2 -14 -11z"/>
<path d="M840 225 c0 -23 3 -27 10 -15 6 10 10 11 10 3 0 -7 5 -13 10 -13 6 0
10 11 10 25 0 14 -4 25 -10 25 -5 0 -10 -6 -10 -12 0 -9 -4 -8 -10 2 -7 12
-10 8 -10 -15z"/>
<path d="M940 224 c0 -23 2 -26 11 -14 8 11 12 12 16 3 8 -22 23 -14 23 12 0
14 -4 25 -10 25 -5 0 -10 -5 -10 -11 0 -8 -5 -8 -15 1 -13 11 -15 8 -15 -16z"/>
<path d="M1060 243 c0 -6 -2 -18 -5 -25 -4 -9 2 -14 15 -14 11 0 20 3 20 6 0
12 -29 45 -30 33z"/>
<path d="M1150 226 c0 -20 5 -26 21 -26 15 0 20 5 17 22 -5 34 -38 37 -38 4z"/>
<path d="M1340 230 c-13 -23 -4 -43 9 -21 7 11 10 11 14 0 4 -11 6 -11 6 1 0
8 -3 21 -8 29 -7 11 -11 9 -21 -9z"/>
<path d="M1436 238 c-9 -20 0 -38 20 -38 9 0 14 10 13 28 l-1 27 -7 -25 -8
-25 -5 25 c-4 21 -6 22 -12 8z"/>
<path d="M1538 225 c2 -14 8 -25 12 -25 4 0 10 11 12 25 4 19 1 25 -12 25 -13
0 -16 -6 -12 -25z"/>
<path d="M1637 244 c-4 -4 -7 -16 -7 -26 0 -14 6 -19 23 -16 14 2 22 10 22 23
0 20 -25 32 -38 19z"/>
<path d="M1741 225 c0 -17 3 -24 6 -17 2 6 11 12 18 12 7 0 16 -6 18 -12 3 -7
6 0 6 16 1 22 -2 26 -12 17 -10 -8 -17 -7 -25 1 -9 9 -12 5 -11 -17z"/>
<path d="M1854 236 c-8 -21 3 -36 27 -36 15 0 20 6 17 22 -4 27 -35 37 -44 14z"/>
<path d="M1968 225 c2 -14 8 -25 12 -25 4 0 10 11 12 25 4 19 1 25 -12 25 -13
0 -16 -6 -12 -25z"/>
<path d="M2135 230 c4 -14 9 -27 12 -30 6 -7 23 23 22 40 0 11 -2 11 -6 2 -4
-10 -8 -10 -20 0 -14 11 -15 10 -8 -12z"/>
<path d="M2237 243 c-16 -16 -6 -43 16 -43 18 0 19 2 7 10 -13 9 -13 10 0 10
12 0 13 2 1 9 -11 7 -11 9 0 14 11 4 10 6 -2 6 -9 1 -19 -2 -22 -6z"/>
</g>
</svg>
